<mxfile host="65bd71144e">
    <diagram id="nBNofm79l44WtfpoiJqJ" name="Page-1">
        <mxGraphModel dx="1118" dy="534" grid="1" gridSize="10" guides="1" tooltips="1" connect="1" arrows="1" fold="1" page="1" pageScale="1" pageWidth="827" pageHeight="1169" background="none" math="0" shadow="0">
            <root>
                <mxCell id="0"/>
                <mxCell id="1" parent="0"/>
                <mxCell id="2" value="Cliente" style="shape=umlActor;verticalLabelPosition=bottom;verticalAlign=top;html=1;outlineConnect=0;" parent="1" vertex="1">
                    <mxGeometry x="30" y="252.5" width="50" height="90" as="geometry"/>
                </mxCell>
                <mxCell id="3" value="" style="whiteSpace=wrap;html=1;aspect=fixed;" parent="1" vertex="1">
                    <mxGeometry x="147" y="40" width="680" height="680" as="geometry"/>
                </mxCell>
                <mxCell id="5" value="realizar cadastro" style="ellipse;whiteSpace=wrap;html=1;" parent="1" vertex="1">
                    <mxGeometry x="184" y="60" width="160" height="70" as="geometry"/>
                </mxCell>
                <mxCell id="7" value="logar" style="ellipse;whiteSpace=wrap;html=1;" parent="1" vertex="1">
                    <mxGeometry x="199" y="252.5" width="130" height="60" as="geometry"/>
                </mxCell>
                <mxCell id="8" value="realizar compra" style="ellipse;whiteSpace=wrap;html=1;" parent="1" vertex="1">
                    <mxGeometry x="600" y="440" width="140" height="60" as="geometry"/>
                </mxCell>
                <mxCell id="9" value="adicionar ao carrinho" style="ellipse;whiteSpace=wrap;html=1;" parent="1" vertex="1">
                    <mxGeometry x="570" y="270" width="140" height="55" as="geometry"/>
                </mxCell>
                <mxCell id="10" value="excluir produtos" style="ellipse;whiteSpace=wrap;html=1;" parent="1" vertex="1">
                    <mxGeometry x="560" y="610" width="140" height="50" as="geometry"/>
                </mxCell>
                <mxCell id="13" value="fazer logout" style="ellipse;whiteSpace=wrap;html=1;" parent="1" vertex="1">
                    <mxGeometry x="560" y="67.5" width="140" height="55" as="geometry"/>
                </mxCell>
                <mxCell id="14" value="" style="endArrow=none;html=1;exitX=1;exitY=0.3333333333333333;exitDx=0;exitDy=0;exitPerimeter=0;entryX=0;entryY=0.5;entryDx=0;entryDy=0;" parent="1" source="2" target="5" edge="1">
                    <mxGeometry width="50" height="50" relative="1" as="geometry">
                        <mxPoint x="320" y="410" as="sourcePoint"/>
                        <mxPoint x="370" y="360" as="targetPoint"/>
                    </mxGeometry>
                </mxCell>
                <mxCell id="16" value="" style="endArrow=classic;html=1;entryX=0.5;entryY=1;entryDx=0;entryDy=0;exitX=0.5;exitY=0;exitDx=0;exitDy=0;" parent="1" source="7" target="5" edge="1">
                    <mxGeometry relative="1" as="geometry">
                        <mxPoint x="290" y="380" as="sourcePoint"/>
                        <mxPoint x="390" y="380" as="targetPoint"/>
                    </mxGeometry>
                </mxCell>
                <mxCell id="17" value="inclui" style="edgeLabel;resizable=0;html=1;align=center;verticalAlign=middle;" parent="16" connectable="0" vertex="1">
                    <mxGeometry relative="1" as="geometry"/>
                </mxCell>
                <mxCell id="19" value="" style="endArrow=classic;html=1;exitX=0;exitY=0.5;exitDx=0;exitDy=0;entryX=1;entryY=0.5;entryDx=0;entryDy=0;" parent="1" source="13" target="7" edge="1">
                    <mxGeometry relative="1" as="geometry">
                        <mxPoint x="290" y="380" as="sourcePoint"/>
                        <mxPoint x="390" y="380" as="targetPoint"/>
                        <Array as="points">
                            <mxPoint x="430" y="283"/>
                        </Array>
                    </mxGeometry>
                </mxCell>
                <mxCell id="20" value="estende" style="edgeLabel;resizable=0;html=1;align=center;verticalAlign=middle;" parent="19" connectable="0" vertex="1">
                    <mxGeometry relative="1" as="geometry"/>
                </mxCell>
                <mxCell id="21" value="" style="endArrow=classic;html=1;exitX=0;exitY=0.5;exitDx=0;exitDy=0;entryX=0.5;entryY=1;entryDx=0;entryDy=0;" parent="1" source="8" target="7" edge="1">
                    <mxGeometry relative="1" as="geometry">
                        <mxPoint x="524" y="528.75" as="sourcePoint"/>
                        <mxPoint x="303" y="531.25" as="targetPoint"/>
                    </mxGeometry>
                </mxCell>
                <mxCell id="22" value="estende" style="edgeLabel;resizable=0;html=1;align=center;verticalAlign=middle;" parent="21" connectable="0" vertex="1">
                    <mxGeometry relative="1" as="geometry"/>
                </mxCell>
                <mxCell id="25" value="" style="endArrow=classic;html=1;exitX=0;exitY=0.5;exitDx=0;exitDy=0;entryX=1;entryY=0.708;entryDx=0;entryDy=0;entryPerimeter=0;" parent="1" source="9" target="7" edge="1">
                    <mxGeometry relative="1" as="geometry">
                        <mxPoint x="511" y="356.25" as="sourcePoint"/>
                        <mxPoint x="290" y="358.75" as="targetPoint"/>
                    </mxGeometry>
                </mxCell>
                <mxCell id="26" value="estende" style="edgeLabel;resizable=0;html=1;align=center;verticalAlign=middle;" parent="25" connectable="0" vertex="1">
                    <mxGeometry relative="1" as="geometry"/>
                </mxCell>
                <mxCell id="27" value="" style="endArrow=classic;html=1;entryX=0;entryY=1;entryDx=0;entryDy=0;exitX=0;exitY=0.5;exitDx=0;exitDy=0;" parent="1" source="10" target="7" edge="1">
                    <mxGeometry relative="1" as="geometry">
                        <mxPoint x="590" y="320" as="sourcePoint"/>
                        <mxPoint x="369" y="322.5" as="targetPoint"/>
                    </mxGeometry>
                </mxCell>
                <mxCell id="28" value="estende" style="edgeLabel;resizable=0;html=1;align=center;verticalAlign=middle;" parent="27" connectable="0" vertex="1">
                    <mxGeometry relative="1" as="geometry"/>
                </mxCell>
                <mxCell id="29" value="" style="endArrow=none;html=1;exitX=1;exitY=0.3333333333333333;exitDx=0;exitDy=0;exitPerimeter=0;entryX=0;entryY=0.5;entryDx=0;entryDy=0;" parent="1" source="2" target="7" edge="1">
                    <mxGeometry width="50" height="50" relative="1" as="geometry">
                        <mxPoint x="360" y="410" as="sourcePoint"/>
                        <mxPoint x="410" y="360" as="targetPoint"/>
                    </mxGeometry>
                </mxCell>
            </root>
        </mxGraphModel>
    </diagram>
</mxfile>